HIERARCHY
ROOT Hips
{
	OFFSET 0.000000 0.000000 0.000000
	CHANNELS 6 Xposition Yposition Zposition Zrotation Yrotation Xrotation 
	JOINT LHipJoint
	{
		OFFSET 0.000000 0.000000 0.000000
		CHANNELS 3 Zrotation Yrotation Xrotation
		JOINT LeftUpLeg
		{
			OFFSET 1.363060 -1.794630 0.839290
			CHANNELS 3 Zrotation Yrotation Xrotation
			JOINT LeftLeg
			{
				OFFSET 2.448110 -6.726130 0.000000
				CHANNELS 3 Zrotation Yrotation Xrotation
				JOINT LeftFoot
				{
					OFFSET 2.562200 -7.039590 0.000000
					CHANNELS 3 Zrotation Yrotation Xrotation
					JOINT LeftToeBase
					{
						OFFSET 0.157640 -0.433110 2.322550
						CHANNELS 3 Zrotation Yrotation Xrotation
						End Site
						{
							OFFSET 0.000000 0.000000 0.000000
						}
					}
				}
			}
		}
	}
	JOINT RHipJoint
	{
		OFFSET 0.000000 0.000000 0.000000
		CHANNELS 3 Zrotation Yrotation Xrotation
		JOINT RightUpLeg
		{
			OFFSET -1.305520 -1.794630 0.839290
			CHANNELS 3 Zrotation Yrotation Xrotation
			JOINT RightLeg
			{
				OFFSET -2.542530 -6.985550 0.000000
				CHANNELS 3 Zrotation Yrotation Xrotation
				JOINT RightFoot
				{
					OFFSET -2.568260 -7.056230 0.000000
					CHANNELS 3 Zrotation Yrotation Xrotation
					JOINT RightToeBase
					{
						OFFSET -0.164730 -0.452590 2.363150
						CHANNELS 3 Zrotation Yrotation Xrotation
						End Site
						{
							OFFSET 0.000000 0.000000 0.000000
						}
					}
				}
			}
		}
	}
}
MOTION
Frames: 16
Frame Time: 0.008333
-1.341843 16.360803 -1.957914 -149.882485 72.411886 -140.837295 -11.323179 0.705681 2.268438 -20.485569 1.263217 -35.694122 -2.208585 0.045065 20.996607 2.525791 10.142611 -15.283742 178.726600 -0.000000 -13.852399 9.022979 -2.185202 -2.497860 0.931231 -14.518638 -19.664027 -0.729699 -3.093799 55.168036 -0.910815 0.206979 18.737333 0.465900 0.000001 -77.002300
-1.158778 16.332342 -2.037642 -152.413849 71.599585 -142.932774 -11.119101 0.739766 2.513031 -20.589876 -0.884293 -35.473038 -2.081720 0.165972 22.664873 2.669851 10.762100 -15.765839 178.569200 -0.000000 -14.697300 9.212631 -1.910554 -2.324426 0.620894 -13.152373 -21.405923 -0.927269 -3.188751 57.710770 -1.128930 -1.998183 17.546173 -0.413901 -0.000000 -73.127699
-0.980319 16.312463 -2.118786 -154.857546 70.752563 -144.925536 -10.911941 0.751730 2.714148 -20.800755 -2.851495 -35.096509 -1.986025 0.244482 23.965415 2.811001 11.319651 -16.371024 178.375200 -0.000000 -15.259300 9.378676 -1.635980 -2.120197 0.287638 -11.638189 -23.108480 -1.092916 -3.280464 59.833923 -1.355784 -4.320715 15.902389 -1.266501 0.000000 -69.404000
-0.806425 16.301630 -2.202860 -157.128544 69.868279 -146.744279 -10.716286 0.743231 2.867929 -21.082679 -4.588786 -34.540605 -1.922264 0.280691 24.863190 2.944554 11.797107 -17.075701 178.149500 0.000000 -15.586600 9.509930 -1.369340 -1.882327 -0.057136 -9.988469 -24.749902 -1.224964 -3.362158 61.493246 -1.589464 -6.626421 13.918726 -1.998201 0.000000 -65.929400
-0.636660 16.300063 -2.290723 -159.193962 68.945130 -148.367078 -10.540012 0.718967 2.975664 -21.407194 -6.080077 -33.778869 -1.888404 0.275528 25.331405 3.064141 12.179497 -17.821484 177.908600 0.000000 -15.692000 9.602116 -1.116150 -1.611388 -0.416972 -8.229263 -26.311517 -1.320604 -3.428442 62.661824 -1.822773 -8.775767 11.711001 -2.538001 0.000000 -62.657900
-0.470818 16.307123 -2.383663 -160.990936 67.974253 -149.740093 -10.396923 0.683097 3.043036 -21.724767 -7.314825 -32.818976 -1.879702 0.233624 25.386537 3.157464 12.426828 -18.545550 177.676400 -0.000000 -15.611000 9.646452 -0.883938 -1.308149 -0.767450 -6.385074 -27.783620 -1.377751 -3.472327 63.326487 -2.045642 -10.658431 9.404902 -2.856499 -0.000000 -59.633400
-0.308306 16.321962 -2.482113 -162.513334 66.946560 -150.861799 -10.293223 0.641346 3.078882 -22.000053 -8.308063 -31.669137 -1.890758 0.159982 25.051744 3.211614 12.503406 -19.168711 177.484801 -0.000000 -15.368700 9.641418 -0.677388 -0.976913 -1.098675 -4.492464 -29.161196 -1.395167 -3.490298 63.493333 -2.245105 -12.184384 7.111923 -2.957900 -0.000000 -56.829201
-0.148580 16.343380 -2.586392 -163.760732 65.847206 -151.733336 -10.234346 0.598572 3.094758 -22.197906 -9.087363 -30.355706 -1.915289 0.061315 24.373628 3.213845 12.373564 -19.619796 177.364800 0.000000 -15.014001 9.586377 -0.500221 -0.622925 -1.395332 -2.589607 -30.446682 -1.373218 -3.480267 63.182467 -2.409400 -13.303730 4.931894 -2.878900 0.000001 -54.253200
0.008929 16.369977 -2.696268 -164.756461 64.659510 -152.374583 -10.222353 0.558978 3.103731 -22.290581 -9.693934 -28.916845 -1.947248 -0.054413 23.416680 3.154864 12.012156 -19.845702 177.339799 0.000000 -14.614500 9.483361 -0.353970 -0.252074 -1.644126 -0.715782 -31.649316 -1.314238 -3.442088 62.426952 -2.530698 -14.008298 2.946250 -2.676399 0.000000 -51.942300
0.164756 16.400287 -2.811352 -165.533773 63.363334 -152.811527 -10.256495 0.525701 3.119841 -22.258936 -10.180059 -27.399922 -1.980726 -0.178622 22.258336 3.031619 11.413276 -19.819831 177.418500 -0.000000 -14.246900 9.336301 -0.238345 0.130372 -1.836045 1.091306 -32.783316 -1.222156 -3.376970 61.267254 -2.607026 -14.330993 1.215058 -2.412700 -0.000000 -49.949700
0.319345 16.432926 -2.930632 -166.150455 61.941308 -153.093266 -10.330833 0.500986 3.155069 -22.099406 -10.604969 -25.850139 -2.011338 -0.302882 20.979987 2.848547 10.593622 -19.545300 177.592400 0.000000 -13.977800 9.152457 -0.150569 0.518540 -1.973993 2.794294 -33.862984 -1.102463 -3.287640 59.749232 -2.642262 -14.335739 -0.229078 -2.141400 0.000000 -48.318901
0.473071 16.466696 -3.052963 -166.667988 60.379990 -153.271818 -10.435569 0.486429 3.219165 -21.823230 -11.029225 -24.306270 -2.035954 -0.420012 19.658264 2.617434 9.592803 -19.052618 177.838500 -0.000001 -13.853001 8.941220 -0.086436 0.907099 -2.070822 4.358542 -34.900712 -0.961235 -3.177313 57.918510 -2.645368 -14.108185 -1.381693 -1.900201 0.000000 -47.060800
0.626238 16.500648 -3.176880 -167.153039 58.673473 -153.407101 -10.556732 0.482929 3.317406 -21.456506 -11.507365 -22.792336 -2.053483 -0.525005 18.355488 2.355269 8.467181 -18.393430 178.125100 0.000000 -13.889100 8.714402 -0.040442 1.289818 -2.149074 5.750393 -35.901858 -0.804514 -3.049383 55.817969 -2.628425 -13.741567 -2.265664 -1.708700 0.000000 -46.145901
0.778942 16.534094 -3.301168 -167.658683 56.825754 -153.550591 -10.678677 0.490596 3.449458 -21.037345 -12.079723 -21.314304 -2.064433 -0.615481 17.113892 2.081383 7.283585 -17.630526 178.420199 0.000000 -14.074499 8.484639 -0.006485 1.659261 -2.235413 6.939068 -36.862044 -0.637440 -2.906532 53.484299 -2.604605 -13.325212 -2.924670 -1.571300 0.000000 -45.518200
0.931231 16.566563 -3.424691 -168.223099 54.850811 -153.744817 -10.785503 0.509068 3.610240 -20.610288 -12.768728 -19.859889 -2.070790 -0.691642 15.952495 1.814189 6.110380 -16.826914 178.697400 0.000000 -14.374500 8.264787 0.021599 2.007587 -2.354255 7.897864 -37.766893 -0.463840 -2.750304 50.945922 -2.585925 -12.932861 -3.412800 -1.483801 0.000000 -45.117200
1.083083 16.597773 -3.546629 -168.865115 52.773854 -154.017068 -10.864303 0.537196 3.789010 -20.218691 -13.573100 -18.404693 -2.075514 -0.755302 14.872270 1.568219 5.007743 -16.037038 178.939800 -0.000001 -14.737500 8.065799 0.049848 2.326087 -2.520718 8.607126 -38.594018 -0.286077 -2.580638 48.221639 -2.581604 -12.615716 -3.784297 -1.437600 -0.000000 -44.893600
